<svg width="28" height="32" viewBox="0 0 28 32" fill="none" xmlns="http://www.w3.org/2000/svg">
<path d="M15.5937 13.6013C14.9591 13.6013 14.3506 13.369 13.9019 12.9553C13.4532 12.5417 13.2012 11.9807 13.2012 11.3957C13.2012 10.8107 13.4532 10.2497 13.9019 9.83607C14.3506 9.42244 14.9591 9.19006 15.5937 9.19006C17.6023 9.18802 19.528 8.45153 20.9484 7.14217C22.3687 5.8328 23.1677 4.05749 23.17 2.20573C23.17 1.62076 23.4221 1.05974 23.8708 0.646101C24.3194 0.232464 24.9279 8.39233e-05 25.5624 8.39233e-05C26.197 8.39233e-05 26.8056 0.232464 27.2542 0.646101C27.7029 1.05974 27.955 1.62076 27.955 2.20573C27.9512 5.22702 26.6477 8.12359 24.3303 10.2599C22.0129 12.3963 18.8709 13.598 15.5937 13.6013Z" fill="#EC6C0C"/>
<path d="M2.39257 31.9818C1.75803 31.9818 1.14947 31.7494 0.700772 31.3357C0.252077 30.922 0 30.3611 0 29.776C0.0036846 26.7547 1.30723 23.8581 3.62463 21.7217C5.94204 19.5853 9.08404 18.3836 12.3613 18.3803C12.9958 18.3803 13.6044 18.6126 14.0531 19.0263C14.5017 19.4399 14.7538 20.0009 14.7538 20.586C14.7538 21.1709 14.5017 21.732 14.0531 22.1455C13.6044 22.5592 12.9958 22.7915 12.3613 22.7915C10.3527 22.7937 8.42693 23.5302 7.00659 24.8395C5.58624 26.149 4.78727 27.9242 4.78498 29.776C4.78498 30.3609 4.53293 30.922 4.08427 31.3357C3.63561 31.7494 3.0271 31.9818 2.39257 31.9818Z" fill="#BE3818"/>
<path d="M15.5937 31.9817C14.9626 31.9769 14.3591 31.7424 13.9147 31.3293C13.4702 30.9163 13.2209 30.3579 13.2209 29.776C13.2209 29.1943 13.4702 28.636 13.9147 28.2229C14.3591 27.8098 14.9626 27.5753 15.5937 27.5705C16.5886 27.5705 17.5739 27.3897 18.493 27.0389C19.4122 26.6878 20.2473 26.1733 20.9509 25.5248C21.6544 24.8762 22.2124 24.1062 22.5932 23.2588C22.974 22.4114 23.1698 21.5031 23.1698 20.5858C23.1698 19.6686 22.974 18.7604 22.5932 17.913C22.2124 17.0657 21.6544 16.2956 20.9509 15.647C20.2473 14.9985 19.4122 14.484 18.493 14.133C17.5739 13.782 16.5886 13.6013 15.5937 13.6013C14.9591 13.6013 14.3506 13.369 13.9019 12.9553C13.4532 12.5417 13.2012 11.9807 13.2012 11.3957C13.2012 10.8107 13.4532 10.2497 13.9019 9.83608C14.3506 9.42243 14.9591 9.19005 15.5937 9.19005C17.2208 9.1846 18.8329 9.47533 20.3379 10.0456C21.8429 10.6158 23.2109 11.4544 24.3634 12.5131C25.5161 13.5719 26.4307 14.83 27.0547 16.2153C27.6787 17.6006 28 19.0858 28 20.5858C28 22.0859 27.6787 23.5712 27.0547 24.9565C26.4307 26.3418 25.5161 27.5999 24.3634 28.6586C23.2109 29.7175 21.8429 30.556 20.3379 31.1263C18.8329 31.6965 17.2208 31.9872 15.5937 31.9817Z" fill="url(#paint0_linear_54_125)"/>
<path d="M24.1619 10.4118C25.3618 9.35062 26.3166 8.07653 26.9685 6.66627C27.6205 5.25599 27.956 3.7387 27.9552 2.20572C27.9552 1.62076 27.7032 1.05974 27.2544 0.646101C26.8058 0.232464 26.1973 8.39233e-05 25.5628 8.39233e-05C24.9282 8.39233e-05 24.3196 0.232464 23.871 0.646101C23.4223 1.05974 23.1702 1.62076 23.1702 2.20572C23.1696 3.39217 22.8412 4.55892 22.2159 5.59595C21.5908 6.63298 20.6894 7.50611 19.5967 8.13303C21.2763 8.58581 22.8325 9.36257 24.1619 10.4118Z" fill="url(#paint1_linear_54_125)"/>
<path d="M12.3616 22.7915C9.08326 22.7915 5.93914 21.5909 3.62099 19.4537C1.30282 17.3167 0.000488281 14.4181 0.000488281 11.3958C0.000488281 8.37341 1.30282 5.47486 3.62099 3.33774C5.93914 1.20062 9.08326 -3.8147e-06 12.3616 -3.8147e-06C12.9962 -3.8147e-06 13.6047 0.232376 14.0534 0.646013C14.5021 1.05965 14.7541 1.62067 14.7541 2.20564C14.7541 2.79061 14.5021 3.35161 14.0534 3.76526C13.6047 4.1789 12.9962 4.41127 12.3616 4.41127C11.3667 4.41127 10.3816 4.59193 9.46238 4.94293C8.54318 5.29394 7.708 5.80841 7.00448 6.45698C6.30097 7.10556 5.74291 7.87551 5.36217 8.72292C4.98143 9.57031 4.78547 10.4785 4.78547 11.3958C4.78547 12.313 4.98143 13.2212 5.36217 14.0686C5.74291 14.916 6.30097 15.686 7.00448 16.3346C7.708 16.983 8.54318 17.4976 9.46238 17.8486C10.3816 18.1995 11.3667 18.3802 12.3616 18.3802C12.9962 18.3802 13.6047 18.6126 14.0534 19.0263C14.5021 19.4398 14.7541 20.0009 14.7541 20.5858C14.7541 21.1709 14.5021 21.7319 14.0534 22.1455C13.6047 22.5592 12.9962 22.7915 12.3616 22.7915Z" fill="url(#paint2_linear_54_125)"/>
<path d="M3.79357 21.5697C2.5935 22.631 1.63877 23.905 0.986834 25.3153C0.334898 26.7257 -0.000756311 28.2429 8.18926e-05 29.776C-0.00253137 30.0672 0.0574232 30.3559 0.176486 30.6257C0.295548 30.8954 0.471364 31.1407 0.693787 31.3474C0.91621 31.5543 1.18084 31.7184 1.47241 31.8303C1.76397 31.9423 2.07672 32 2.39257 32C2.70844 32 3.02118 31.9423 3.31275 31.8303C3.60432 31.7184 3.86894 31.5543 4.09136 31.3474C4.31378 31.1407 4.4896 30.8954 4.60866 30.6257C4.72772 30.3559 4.78768 30.0672 4.78506 29.776C4.7857 28.5896 5.11413 27.4228 5.73939 26.3857C6.36463 25.3486 7.2661 24.4754 8.35877 23.8485C6.67907 23.3957 5.12296 22.6189 3.79357 21.5697Z" fill="#E64A1A"/>
<defs>
<linearGradient id="paint0_linear_54_125" x1="20.6006" y1="31.9817" x2="20.6006" y2="9.18998" gradientUnits="userSpaceOnUse">
<stop stop-color="#E9592D"/>
<stop offset="1" stop-color="#F39519"/>
</linearGradient>
<linearGradient id="paint1_linear_54_125" x1="21.8618" y1="9.33941" x2="28.8889" y2="2.11339" gradientUnits="userSpaceOnUse">
<stop offset="0.005" stop-color="#F39519"/>
<stop offset="0.146" stop-color="#F39519"/>
<stop offset="1" stop-color="#F39519"/>
</linearGradient>
<linearGradient id="paint2_linear_54_125" x1="7.37731" y1="22.7915" x2="7.37731" y2="-3.8147e-06" gradientUnits="userSpaceOnUse">
<stop stop-color="#E9592D"/>
<stop offset="1" stop-color="#F39519"/>
</linearGradient>
</defs>
</svg>
