<svg width="30" height="28" viewBox="0 0 30 28" fill="none" xmlns="http://www.w3.org/2000/svg">
<path d="M29.9728 13.6984C29.9728 6.13187 23.3805 -0.00164795 15.2496 -0.00164795C7.11501 5.39143e-05 0.522705 6.13187 0.522705 13.7001C0.522705 20.5364 5.90771 26.2036 12.9454 27.2316V17.6586H9.20939V13.7001H12.9491V10.6792C12.9491 7.24659 15.1484 5.35071 18.5108 5.35071C20.123 5.35071 21.8069 5.61791 21.8069 5.61791V8.98759H19.95C18.1224 8.98759 17.5519 10.0445 17.5519 11.1285V13.6984H21.6339L20.9824 17.6569H17.5501V27.2299C24.5878 26.2019 29.9728 20.5347 29.9728 13.6984Z" fill="#059BE5"/>
</svg>
