<svg width="31" height="28" viewBox="0 0 31 28" fill="none" xmlns="http://www.w3.org/2000/svg">
<g clip-path="url(#clip0_19_31)">
<path fill-rule="evenodd" clip-rule="evenodd" d="M15.3865 0C7.25196 0 0.66333 6.09267 0.66333 13.6149C0.66333 19.6395 4.87784 24.7281 10.7303 26.5321C11.4665 26.6512 11.7425 26.2427 11.7425 25.8853C11.7425 25.562 11.7241 24.4898 11.7241 23.3496C8.02493 23.9793 7.06792 22.5157 6.77345 21.7498C6.60782 21.3584 5.89006 20.1501 5.26433 19.8267C4.74902 19.5714 4.01286 18.9417 5.24592 18.9247C6.40537 18.9077 7.23355 19.9118 7.50961 20.3202C8.8347 22.3795 10.9512 21.8009 11.7977 21.4435C11.9266 20.5585 12.3131 19.9629 12.7363 19.6225C9.46044 19.2821 6.0373 18.1078 6.0373 12.9001C6.0373 11.4195 6.60782 10.1942 7.54642 9.24112C7.39919 8.90075 6.88388 7.50522 7.69365 5.63317C7.69365 5.63317 8.92672 5.27578 11.7425 7.0287C12.9204 6.72236 14.1719 6.56919 15.4233 6.56919C16.6748 6.56919 17.9263 6.72236 19.1041 7.0287C21.9199 5.25876 23.153 5.63317 23.153 5.63317C23.9628 7.50522 23.4475 8.90075 23.3002 9.24112C24.2388 10.1942 24.8094 11.4025 24.8094 12.9001C24.8094 18.1248 21.3678 19.2821 18.0919 19.6225C18.6256 20.048 19.0857 20.8648 19.0857 22.1412C19.0857 23.9622 19.0673 25.4258 19.0673 25.8853C19.0673 26.2427 19.3434 26.6682 20.0795 26.5321C23.0023 25.6195 25.5421 23.8825 27.3413 21.5653C29.1406 19.2481 30.1088 16.4676 30.1097 13.6149C30.1097 6.09267 23.5211 0 15.3865 0Z" fill="black"/>
</g>
<defs>
<clipPath id="clip0_19_31">
<rect x="0.66333" width="29.4464" height="27.2298" rx="13.6149" fill="white"/>
</clipPath>
</defs>
</svg>
