<svg width="30" height="28" viewBox="0 0 30 28" fill="none" xmlns="http://www.w3.org/2000/svg">
<g clip-path="url(#clip0_19_25)">
<path d="M29.1869 11.3748H28.0009V11.3183H14.7503V16.7641H23.071C21.857 19.9343 18.5952 22.21 14.7503 22.21C9.87184 22.21 5.91652 18.5524 5.91652 14.0412C5.91652 9.52996 9.87184 5.87238 14.7503 5.87238C17.0022 5.87238 19.0509 6.65795 20.6107 7.94113L24.7751 4.09022C22.1456 1.82406 18.6283 0.426514 14.7503 0.426514C6.61954 0.426514 0.0273438 6.52248 0.0273438 14.0412C0.0273438 21.5599 6.61954 27.6559 14.7503 27.6559C22.881 27.6559 29.4732 21.5599 29.4732 14.0412C29.4732 13.1283 29.3716 12.2372 29.1869 11.3748Z" fill="#FFC107"/>
<path d="M1.72388 7.70424L6.5611 10.9847C7.86997 7.9881 11.0398 5.87238 14.7493 5.87238C17.0011 5.87238 19.0498 6.65795 20.6097 7.94113L24.7741 4.09022C22.1446 1.82406 18.6273 0.426514 14.7493 0.426514C9.09418 0.426514 4.18997 3.37885 1.72388 7.70424Z" fill="#FF3D00"/>
<path d="M14.7504 27.6563C18.5533 27.6563 22.0088 26.3105 24.6214 24.122L20.0646 20.5563C18.5368 21.6308 16.6699 22.2119 14.7504 22.2105C10.921 22.2105 7.66941 19.9525 6.44446 16.8014L1.64331 20.222C4.07996 24.6312 9.02834 27.6563 14.7504 27.6563Z" fill="#4CAF50"/>
<path d="M29.1868 11.3747H28.0009V11.3182H14.7502V16.7641H23.0709C22.4902 18.2729 21.4443 19.5913 20.0623 20.5565L20.0645 20.5551L24.6212 24.1208C24.2988 24.3917 29.4732 20.8485 29.4732 14.0412C29.4732 13.1283 29.3716 12.2372 29.1868 11.3747Z" fill="#1976D2"/>
</g>
<defs>
<clipPath id="clip0_19_25">
<rect x="0.0273438" y="0.426514" width="29.4464" height="27.2298" rx="13.6149" fill="white"/>
</clipPath>
</defs>
</svg>
