<svg width="35" height="20" viewBox="0 0 35 20" fill="none" xmlns="http://www.w3.org/2000/svg">
<path d="M28.3209 4.87369H32.2125C32.3347 4.87343 32.4556 4.89458 32.5685 4.93594C32.6813 4.97731 32.7839 5.03806 32.8702 5.1147C32.9566 5.19136 33.025 5.28239 33.0716 5.38259C33.1182 5.48278 33.1419 5.59015 33.1417 5.69854L33.1401 14.2585C33.1405 14.367 33.1166 14.4743 33.07 14.5746C33.0235 14.6749 32.955 14.7659 32.8686 14.8425C32.7823 14.9191 32.6797 14.9799 32.5667 15.0213C32.4538 15.0626 32.3328 15.0837 32.2107 15.0834H28.3193V16.7331L32.2144 16.73C32.9532 16.7299 33.6617 16.4693 34.1841 16.0057C34.7064 15.5419 35 14.913 35.0001 14.2572V5.69843C35.0003 5.37388 34.9284 5.05248 34.7885 4.75261C34.6486 4.45275 34.4435 4.18027 34.1849 3.95078C33.9264 3.72128 33.6195 3.53926 33.2817 3.4151C32.9438 3.29094 32.5818 3.22708 32.2161 3.22718L28.3193 3.22564L28.3209 4.87369Z" fill="#422E93"/>
<path d="M26.7434 4.17476L26.7417 2.31907C26.7449 0.956928 25.4956 0 23.9577 0H11.0463C9.50644 0 8.25524 1.0475 8.25684 2.41142L8.25817 3.68926H8.25684L8.25857 5.73909C8.25653 6.39896 8.54769 7.03293 9.06889 7.50346C9.59008 7.97397 10.2993 8.2431 11.0426 8.25243H23.954C25.4937 8.25243 26.7449 7.0109 26.7433 5.64674L26.7421 4.17476H26.7434ZM24.8829 5.7106C24.8836 5.81925 24.8603 5.92695 24.8139 6.02757C24.7677 6.12818 24.6996 6.2197 24.6135 6.29691C24.5274 6.37412 24.425 6.43549 24.312 6.47752C24.1992 6.51954 24.0781 6.5414 23.9557 6.54183L11.0426 6.54751C10.5313 6.5442 10.1173 6.07454 10.1133 5.62061V4.17476H10.1151L10.1171 2.27379C10.1148 1.81832 10.5308 1.50108 11.0443 1.50285L23.9574 1.52709C24.2029 1.52805 24.438 1.6148 24.612 1.76857C24.786 1.92234 24.8847 2.13074 24.8867 2.34863V3.68926H24.8849L24.8829 5.7106Z" fill="#422E93"/>
<path d="M23.3519 3.22395H11.6631V4.87826H23.3519V3.22395Z" fill="#422E93"/>
<path d="M23.3587 15.1H11.6699V16.7543H23.3587V15.1Z" fill="#422E93"/>
<path d="M26.7649 16.2137L26.763 14.2609C26.7664 12.8987 25.517 11.8446 23.979 11.8446H11.0677C10.7024 11.8431 10.3403 11.9055 10.0023 12.0284C9.66427 12.1512 9.35688 12.3322 9.09775 12.5607C8.83862 12.7893 8.63285 13.061 8.49224 13.3601C8.35162 13.6594 8.27893 13.9804 8.27832 14.3047L8.27952 15.6311H8.27832L8.28005 17.5839C8.27672 18.946 9.52619 20 11.0641 20H23.9754C24.3407 20.0015 24.7026 19.9391 25.0407 19.8164C25.3786 19.6935 25.6861 19.5126 25.9452 19.2842C26.2044 19.0557 26.4102 18.7841 26.5508 18.4849C26.6914 18.1857 26.7642 17.8648 26.7649 17.5406L26.7636 16.2141L26.7649 16.2137ZM24.9044 17.6014C24.9046 17.7087 24.8806 17.8149 24.8338 17.9139C24.7869 18.0128 24.7183 18.1025 24.632 18.1775C24.5456 18.2526 24.4431 18.3116 24.3307 18.351C24.2183 18.3904 24.098 18.4095 23.9772 18.4071L11.0641 18.4C10.8173 18.3962 10.5819 18.3068 10.4083 18.1511C10.2346 17.9953 10.1365 17.7855 10.1348 17.5664V16.2137H10.1367L10.1387 14.2131C10.1382 14.1051 10.1618 13.9979 10.2083 13.898C10.2547 13.798 10.3231 13.7073 10.4093 13.6309C10.4955 13.5547 10.598 13.4942 10.7107 13.4532C10.8234 13.4123 10.9441 13.3916 11.0659 13.3923L23.979 13.3917C24.2288 13.4014 24.4648 13.4962 24.6379 13.6565C24.8109 13.8167 24.9078 14.03 24.9082 14.2519V15.6311H24.9064L24.9044 17.6014Z" fill="#422E93"/>
<path d="M6.67935 15.0848H2.78774C2.66564 15.085 2.54467 15.064 2.43181 15.0226C2.31894 14.9812 2.21639 14.9206 2.13004 14.8438C2.04371 14.7672 1.97529 14.6762 1.9287 14.576C1.88212 14.4759 1.8583 14.3685 1.85862 14.2601L1.86036 5.69937C1.85998 5.59097 1.88377 5.48356 1.93034 5.38334C1.97691 5.2831 2.04534 5.19204 2.1317 5.11539C2.21807 5.03872 2.32065 4.97798 2.43355 4.93664C2.54646 4.89531 2.66746 4.87419 2.7896 4.87452H6.68095V3.22564L2.78574 3.22871C2.04696 3.22888 1.33851 3.48945 0.816118 3.95316C0.293729 4.41685 0.000176566 5.04573 0 5.7015V14.2601C0 14.9155 0.293317 15.544 0.815419 16.0076C1.33752 16.4709 2.04564 16.7313 2.78401 16.7313L6.68081 16.7328L6.67935 15.0848Z" fill="#422E93"/>
</svg>
