<svg width="25" height="29" viewBox="0 0 25 29" fill="none" xmlns="http://www.w3.org/2000/svg">
<path d="M12.4275 8.95204C13.7669 8.9431 15.0966 9.13091 16.3477 9.50576C15.4276 5.88711 14.0085 3.6739 12.4198 3.67555H12.418C10.8297 3.67796 9.41865 5.89343 8.51025 9.51298C9.75974 9.13598 11.0883 8.94571 12.4273 8.95204H12.4275Z" fill="url(#paint0_linear_54_138)"/>
<path d="M12.5205 26.0558L10.499 26.0579C11.009 28.5371 11.73 29.0008 12.527 28.9999C13.3241 28.999 14.0401 28.5336 14.5431 26.0538L12.5205 26.0558Z" fill="url(#paint1_linear_54_138)"/>
<path d="M17.4354 19.0052C17.3526 17.153 17.189 15.2065 16.9208 13.1761C16.7833 12.1354 16.6262 11.1226 16.4494 10.1375C13.8623 9.35451 10.9951 9.35715 8.41032 10.1448C8.23789 11.1394 8.08429 12.1617 7.9495 13.212C7.68836 15.2578 7.53091 17.2197 7.45334 19.0874C5.22026 20.381 3.67842 22.8348 3.68361 26.0537L7.39459 26.05C8.07353 26.05 8.47772 25.9146 8.47772 25.372L8.47541 25.3618L12.4542 25.3579L16.5633 25.3538C16.5633 25.9283 16.9515 26.0406 17.6333 26.0399L21.3583 26.0363C21.3526 22.7558 19.742 20.2599 17.4354 19.0052ZM12.4304 11.0839C12.7356 11.0836 13.0341 11.1542 13.288 11.2868C13.542 11.4193 13.7401 11.6079 13.8573 11.8287C13.9745 12.0495 14.0054 12.2925 13.9463 12.527C13.8872 12.7616 13.7406 12.9771 13.525 13.1464C13.3095 13.3157 13.0348 13.4311 12.7355 13.4781C12.4363 13.525 12.126 13.5014 11.8439 13.4102C11.5618 13.319 11.3206 13.1642 11.1507 12.9656C10.9808 12.767 10.8899 12.5334 10.8896 12.2943C10.8891 11.9737 11.0512 11.6661 11.3401 11.4392C11.6291 11.2122 12.0213 11.0844 12.4304 11.0839ZM12.437 15.022C12.7421 15.0217 13.0405 15.0922 13.2944 15.2249C13.5484 15.3574 13.7464 15.5459 13.8635 15.7667C13.9806 15.9874 14.0116 16.2305 13.9524 16.465C13.8933 16.6995 13.7467 16.9149 13.5312 17.0841C13.3157 17.2535 13.041 17.3689 12.7418 17.4158C12.4426 17.4628 12.1323 17.439 11.8503 17.3478C11.5682 17.2567 11.327 17.102 11.1572 16.9033C10.9873 16.7048 10.8965 16.4712 10.8961 16.2321C10.8956 15.9116 11.0577 15.604 11.3467 15.3771C11.6356 15.1501 12.0278 15.0224 12.437 15.022ZM12.4473 21.3774C12.1422 21.3777 11.8438 21.3072 11.5899 21.1745C11.336 21.042 11.1379 20.8535 11.0208 20.6327C10.9037 20.412 10.8727 20.1689 10.9319 19.9344C10.9911 19.6999 11.1377 19.4845 11.3531 19.3151C11.5686 19.1459 11.8433 19.0305 12.1426 18.9836C12.4417 18.9366 12.752 18.9603 13.034 19.0516C13.3161 19.1427 13.5573 19.2974 13.7271 19.4961C13.897 19.6946 13.9878 19.9282 13.9882 20.1673C13.9885 20.326 13.9488 20.4832 13.8715 20.63C13.7942 20.7766 13.6807 20.9101 13.5376 21.0224C13.3945 21.1348 13.2246 21.224 13.0375 21.2849C12.8504 21.3459 12.6498 21.3774 12.4471 21.3776L12.4473 21.3774Z" fill="url(#paint2_linear_54_138)"/>
<path d="M12.4322 11.5881C12.1959 11.591 11.9706 11.6667 11.8049 11.7987C11.6393 11.9307 11.5466 12.1085 11.5469 12.2937C11.5472 12.4788 11.6405 12.6564 11.8065 12.7881C11.9726 12.9198 12.1982 12.995 12.4345 12.9974C12.6731 12.9972 12.9017 12.9227 13.0702 12.7904C13.2387 12.6581 13.3331 12.4788 13.3328 12.2919C13.3325 12.105 13.2374 11.9258 13.0686 11.7939C12.8997 11.6619 12.6707 11.5879 12.4322 11.5881Z" fill="url(#paint3_linear_54_138)"/>
<path d="M12.4388 15.5261H12.4371C12.2008 15.5289 11.9755 15.6046 11.8098 15.7367C11.6442 15.8687 11.5515 16.0465 11.5518 16.2316C11.5521 16.4167 11.6453 16.5944 11.8114 16.726C11.9775 16.8578 12.2031 16.933 12.4394 16.9354C12.678 16.9352 12.9067 16.8608 13.0752 16.7284C13.2437 16.5962 13.3382 16.4167 13.338 16.2299C13.3377 16.0429 13.2427 15.8638 13.0738 15.7318C12.9049 15.5998 12.676 15.5258 12.4375 15.5259L12.4388 15.5261Z" fill="url(#paint4_linear_54_138)"/>
<path d="M12.4454 19.4643H12.4444C12.2081 19.4671 11.9828 19.5428 11.8171 19.6749C11.6515 19.8069 11.5588 19.9847 11.5591 20.1698C11.5594 20.3549 11.6527 20.5326 11.8188 20.6642C11.9848 20.796 12.2104 20.8712 12.4467 20.8736C12.6853 20.8733 12.9139 20.799 13.0824 20.6666C13.2509 20.5342 13.3454 20.3549 13.3451 20.1681C13.3448 19.9813 13.2498 19.8021 13.0809 19.67C12.912 19.5381 12.6831 19.4641 12.4446 19.4643H12.4454Z" fill="url(#paint5_linear_54_138)"/>
<path d="M17.3017 9.42242C16.5414 6.4327 15.0769 2.86761 12.4168 2.86761H12.3905C10.2649 2.88702 8.63574 5.09527 7.54762 9.43129L7.54531 9.44062L7.24117 10.7966C7.11809 11.4098 7.00865 12.0464 6.91475 12.6943C6.89607 12.8232 6.87794 12.9531 6.86041 13.0839C6.74406 13.9531 6.65247 14.8659 6.58718 15.803C6.25789 15.604 5.94499 15.3889 5.65037 15.1589C4.25418 14.0665 3.31762 12.6659 2.96622 11.1447C2.61482 9.62352 2.86537 8.05455 3.68432 6.6481C4.50324 5.24163 5.8514 4.06491 7.54806 3.27566C9.24472 2.4864 11.2088 2.12236 13.177 2.23229C15.1453 2.34222 17.0236 2.92089 18.5601 3.89073C20.0968 4.86059 21.2182 6.17523 21.774 7.65849C22.3301 9.14174 22.294 10.7227 21.6707 12.1894C21.0473 13.6561 19.8666 14.9385 18.2867 15.8647C18.2184 14.9035 18.1218 13.9662 17.9987 13.0729C17.9807 12.9426 17.9622 12.8127 17.9432 12.6833C17.8472 12.0365 17.7366 11.3998 17.6114 10.788L17.3017 9.42242Z" fill="url(#paint6_linear_54_138)"/>
<path d="M12.4781 0.000307214C9.71506 0.00614064 7.03222 0.728323 4.84818 2.05417C2.66413 3.38002 1.1017 5.23495 0.404674 7.32955C-0.292348 9.42416 -0.0847589 11.6406 0.995055 13.6331C2.07487 15.6255 3.96617 17.282 6.37386 18.3438C6.39945 17.9357 6.42787 17.5321 6.45911 17.1334C5.00287 16.3961 3.78504 15.4041 2.90155 14.2353C1.90309 12.91 1.36973 11.4014 1.35558 9.86254C1.34142 8.32369 1.84697 6.80926 2.82096 5.47285C3.79493 4.13643 5.20269 3.02559 6.90148 2.25292C8.60027 1.48028 10.5297 1.07332 12.494 1.07332C14.4583 1.07332 16.3877 1.48028 18.0865 2.25292C19.7852 3.02559 21.193 4.13643 22.1671 5.47285C23.1409 6.80926 23.6465 8.32369 23.6323 9.86254C23.6183 11.4014 23.0849 12.91 22.0864 14.2353C21.1798 15.4347 19.9213 16.4476 18.4152 17.1901C18.4464 17.5869 18.4753 17.9876 18.5018 18.3924C20.9386 17.3465 22.8616 15.6947 23.9672 13.6977C25.0728 11.7006 25.2982 9.47196 24.6075 7.36344C23.9171 5.25493 22.3499 3.38658 20.1535 2.05325C17.9572 0.719907 15.2566 -0.00250524 12.4781 6.52779e-06V0.000307214Z" fill="url(#paint7_linear_54_138)"/>
<defs>
<linearGradient id="paint0_linear_54_138" x1="12.429" y1="28.5546" x2="12.429" y2="9.297" gradientUnits="userSpaceOnUse">
<stop stop-color="#1153FC"/>
<stop offset="1" stop-color="#5581F1"/>
</linearGradient>
<linearGradient id="paint1_linear_54_138" x1="12.5211" y1="28.558" x2="12.5211" y2="9.29939" gradientUnits="userSpaceOnUse">
<stop stop-color="#1153FC"/>
<stop offset="1" stop-color="#5581F1"/>
</linearGradient>
<linearGradient id="paint2_linear_54_138" x1="12.521" y1="28.5619" x2="12.521" y2="9.30463" gradientUnits="userSpaceOnUse">
<stop stop-color="#1153FC"/>
<stop offset="1" stop-color="#5581F1"/>
</linearGradient>
<linearGradient id="paint3_linear_54_138" x1="12.4399" y1="28.5566" x2="12.4399" y2="9.29792" gradientUnits="userSpaceOnUse">
<stop stop-color="#1153FC"/>
<stop offset="1" stop-color="#5581F1"/>
</linearGradient>
<linearGradient id="paint4_linear_54_138" x1="12.4449" y1="28.5567" x2="12.4449" y2="9.29878" gradientUnits="userSpaceOnUse">
<stop stop-color="#1153FC"/>
<stop offset="1" stop-color="#5581F1"/>
</linearGradient>
<linearGradient id="paint5_linear_54_138" x1="12.4521" y1="28.5574" x2="12.4521" y2="9.2987" gradientUnits="userSpaceOnUse">
<stop stop-color="#1153FC"/>
<stop offset="1" stop-color="#5581F1"/>
</linearGradient>
<linearGradient id="paint6_linear_54_138" x1="12.4888" y1="28.5471" x2="12.4888" y2="9.29827" gradientUnits="userSpaceOnUse">
<stop stop-color="#1153FC"/>
<stop offset="1" stop-color="#5581F1"/>
</linearGradient>
<linearGradient id="paint7_linear_54_138" x1="12.5" y1="28.5635" x2="12.5" y2="9.30657" gradientUnits="userSpaceOnUse">
<stop stop-color="#1153FC"/>
<stop offset="1" stop-color="#5581F1"/>
</linearGradient>
</defs>
</svg>
