<svg width="23" height="25" viewBox="0 0 23 25" fill="none" xmlns="http://www.w3.org/2000/svg">
<path d="M19.9416 3.5306L18.8184 10.516C18.816 10.5299 18.8169 10.5444 18.8208 10.5578C18.8245 10.5713 18.8313 10.5832 18.8402 10.5924C18.849 10.6016 18.8597 10.6077 18.8711 10.61C18.8826 10.6124 18.8944 10.611 18.9052 10.6059L20.1061 10.0501C20.109 10.0706 20.1118 10.0918 20.1145 10.1115C20.4029 12.3425 20.1916 14.6279 19.5033 16.7228C18.8149 18.8177 17.6754 20.6432 16.2069 22.0039C14.7383 23.3645 12.9959 24.209 11.1663 24.4471C9.33681 24.6851 7.489 24.3076 5.8208 23.3549C7.57002 24.546 9.55654 25.1099 11.554 24.9823C13.5515 24.8546 15.4797 24.0408 17.1188 22.6332C18.7579 21.2255 20.042 19.281 20.8248 17.0209C21.6077 14.761 21.8578 12.2763 21.5466 9.85035L22.9297 9.98819C22.9415 9.98933 22.9531 9.98653 22.9637 9.9801C22.9743 9.97368 22.9831 9.96387 22.9895 9.95171C22.9959 9.93955 22.9993 9.9255 22.9997 9.91107C23 9.89664 22.9972 9.88237 22.9914 9.86977L20.0617 3.50644C20.0551 3.49231 20.0452 3.48099 20.0332 3.47399C20.0213 3.467 20.0079 3.46465 19.9949 3.46728C19.9817 3.46991 19.9697 3.47739 19.9601 3.4887C19.9506 3.50002 19.9441 3.51465 19.9416 3.5306Z" fill="url(#paint0_linear_54_152)"/>
<path d="M17.7965 18.104C16.8892 19.5209 15.7239 20.657 14.3943 21.421C13.0647 22.185 11.6077 22.5558 10.1403 22.5035C8.67291 22.4511 7.23593 21.9772 5.94467 21.1198C4.65341 20.2622 3.54382 19.045 2.70497 17.5657C1.8661 16.0866 1.3213 14.3865 1.11429 12.602C0.907289 10.8175 1.04383 8.99829 1.51297 7.29031C1.98211 5.58233 2.77078 4.03315 3.81569 2.76708C4.86061 1.50101 6.13268 0.553299 7.52983 0C5.72947 0.543298 4.08972 1.69698 2.79765 3.32943C1.50557 4.96188 0.613194 7.00736 0.22232 9.23254C-0.168555 11.4577 -0.0421902 13.773 0.586999 15.9142C1.21619 18.0555 2.32287 19.9364 3.78079 21.3426C5.23871 22.7488 6.98916 23.6236 8.83247 23.867C10.6758 24.1105 12.5377 23.713 14.2059 22.7197C15.874 21.7264 17.2812 20.1775 18.267 18.2496C19.2526 16.3217 19.7772 14.0924 19.7807 11.816C19.6483 14.1091 18.9569 16.3 17.7965 18.104Z" fill="url(#paint1_linear_54_152)"/>
<path d="M15.7319 5.92767C15.1534 6.83246 14.4954 7.6563 13.77 8.38434C13.7627 8.39174 13.7567 8.40107 13.7526 8.41163C13.7486 8.4222 13.7465 8.43375 13.7465 8.44544V19.7484C13.7465 19.8393 13.7229 19.9279 13.6792 20.0013C13.6355 20.0749 13.574 20.1293 13.5035 20.157L13.496 20.16C13.4437 20.1806 13.3883 20.1857 13.3341 20.1749C13.2799 20.1643 13.2285 20.1378 13.1842 20.0982C13.1398 20.0584 13.1038 20.0064 13.0789 19.9464C13.054 19.8862 13.0411 19.8198 13.0411 19.7524V9.21455C13.0411 9.20006 13.0379 9.18585 13.0318 9.17345C13.0257 9.16104 13.017 9.15094 13.0065 9.14424C12.996 9.13752 12.9843 9.13448 12.9725 9.13542C12.9607 9.13635 12.9494 9.14123 12.9397 9.14954C11.9791 9.96162 10.932 10.6072 9.8278 11.0679C9.81507 11.0731 9.80398 11.0832 9.79607 11.0966C9.78826 11.1101 9.78402 11.1262 9.78402 11.1427V20.2713C9.78402 20.3347 9.77254 20.3973 9.75045 20.4545C9.72837 20.5118 9.69625 20.5624 9.65642 20.6026C9.61652 20.6429 9.56987 20.6717 9.51981 20.6872C9.46976 20.7026 9.41754 20.7042 9.3669 20.6919L9.35321 20.6886C9.27424 20.6694 9.20316 20.6171 9.15214 20.5406C9.10112 20.4641 9.07333 20.3683 9.07353 20.2694C9.07536 19.2866 9.07719 17.9633 9.07854 17.9642V11.4533C9.07854 11.4412 9.07626 11.4292 9.07189 11.4183C9.06751 11.4074 9.06114 11.3979 9.05329 11.3905C9.04544 11.3831 9.03631 11.3781 9.02661 11.3757C9.0169 11.3734 9.00688 11.3738 8.99734 11.377L8.96541 11.3873C8.06462 11.6779 7.26759 12.3266 6.69879 13.2322C6.12999 14.1378 5.82146 15.2492 5.82139 16.3927V17.892C5.82156 17.9757 5.80172 18.0578 5.76434 18.1277C5.72696 18.1978 5.67367 18.2529 5.61107 18.2862C5.54845 18.3193 5.47929 18.3294 5.4121 18.3148C5.34493 18.3004 5.28269 18.262 5.23309 18.2045C3.84956 16.5717 2.96987 14.4006 2.74387 12.0608C2.51786 9.72106 2.95953 7.35746 3.99364 5.37268C5.02774 3.38791 6.5903 1.90475 8.41512 1.17588C10.2399 0.447014 12.2141 0.517521 14.0014 1.3754C12.5942 0.554027 11.0336 0.209936 9.48158 0.378822C7.92956 0.547706 6.44262 1.22341 5.175 2.33584C3.90739 3.44827 2.90529 4.9569 2.27266 6.70522C1.64003 8.45353 1.39992 10.3778 1.57724 12.2786C1.75456 14.1791 2.34285 15.987 3.28108 17.5143C4.21931 19.0418 5.4733 20.2331 6.91295 20.9648C8.35261 21.6963 9.9255 21.9417 11.4684 21.6754C13.0114 21.4089 14.468 20.6404 15.6876 19.4496C16.113 19.0892 16.5098 18.6803 16.8726 18.2283L16.9107 18.1782C16.9708 18.0991 17.0042 17.9949 17.004 17.8866V3.94503C17.004 3.94503 17.004 3.8953 17.004 3.82934C17.0041 3.81171 16.9994 3.79454 16.9907 3.78053C16.9819 3.76653 16.9697 3.75649 16.9558 3.752C16.9419 3.74751 16.9271 3.74883 16.9139 3.75573C16.9007 3.76263 16.8898 3.77474 16.8828 3.79014C16.5472 4.53999 16.1623 5.25488 15.7319 5.92767Z" fill="url(#paint2_linear_54_152)"/>
<defs>
<linearGradient id="paint0_linear_54_152" x1="5.8208" y1="14.2332" x2="22.9997" y2="14.2332" gradientUnits="userSpaceOnUse">
<stop stop-color="#403BEB"/>
<stop offset="1" stop-color="#22B7A0"/>
</linearGradient>
<linearGradient id="paint1_linear_54_152" x1="-1.20816e-08" y1="11.9683" x2="19.7807" y2="11.9683" gradientUnits="userSpaceOnUse">
<stop stop-color="#403BEB"/>
<stop offset="1" stop-color="#22B7A0"/>
</linearGradient>
<linearGradient id="paint2_linear_54_152" x1="1.52051" y1="11.0584" x2="17.004" y2="11.0584" gradientUnits="userSpaceOnUse">
<stop stop-color="#403BEB"/>
<stop offset="1" stop-color="#22B7A0"/>
</linearGradient>
</defs>
</svg>
